<?xml version="1.0" encoding="UTF-8" standalone="no"?>
<!-- Created with Inkscape (http://www.inkscape.org/) -->

<svg
   xmlns:dc="http://purl.org/dc/elements/1.1/"
   xmlns:cc="http://creativecommons.org/ns#"
   xmlns:rdf="http://www.w3.org/1999/02/22-rdf-syntax-ns#"
   xmlns:svg="http://www.w3.org/2000/svg"
   xmlns="http://www.w3.org/2000/svg"
   xmlns:sodipodi="http://sodipodi.sourceforge.net/DTD/sodipodi-0.dtd"
   xmlns:inkscape="http://www.inkscape.org/namespaces/inkscape"
   width="744.09448819"
   height="1052.3622047"
   id="svg2"
   version="1.1"
   inkscape:version="0.48.4 r9939"
   sodipodi:docname="grid.svg"
   inkscape:export-filename="/home/redi/grid.png"
   inkscape:export-xdpi="90"
   inkscape:export-ydpi="90">
  <defs
     id="defs4" />
  <sodipodi:namedview
     id="base"
     pagecolor="#ffffff"
     bordercolor="#666666"
     borderopacity="1.0"
     inkscape:pageopacity="0.0"
     inkscape:pageshadow="2"
     inkscape:zoom="5.6"
     inkscape:cx="102.08843"
     inkscape:cy="997.0888"
     inkscape:document-units="px"
     inkscape:current-layer="layer1"
     showgrid="false"
     inkscape:window-width="1920"
     inkscape:window-height="1021"
     inkscape:window-x="0"
     inkscape:window-y="30"
     inkscape:window-maximized="1" />
  <metadata
     id="metadata7">
    <rdf:RDF>
      <cc:Work
         rdf:about="">
        <dc:format>image/svg+xml</dc:format>
        <dc:type
           rdf:resource="http://purl.org/dc/dcmitype/StillImage" />
        <dc:title></dc:title>
      </cc:Work>
    </rdf:RDF>
  </metadata>
  <g
     inkscape:label="Layer 1"
     inkscape:groupmode="layer"
     id="layer1">
    <path
       d="M 0,0 0,1052.3622 M 15,0 15,1052.3622 M 30,0 30,1052.3622 M 45,0 45,1052.3622 M 60,0 60,1052.3622 M 75,0 75,1052.3622 M 90,0 90,1052.3622 M 105,0 105,1052.3622 M 120,0 120,1052.3622 M 135,0 135,1052.3622 M 150,0 150,1052.3622 M 165,0 165,1052.3622 M 180,0 180,1052.3622 M 195,0 195,1052.3622 M 210,0 210,1052.3622 M 225,0 225,1052.3622 M 240,0 240,1052.3622 M 255,0 255,1052.3622 M 270,0 270,1052.3622 M 285,0 285,1052.3622 M 300,0 300,1052.3622 M 315,0 315,1052.3622 M 330,0 330,1052.3622 M 345,0 345,1052.3622 M 360,0 360,1052.3622 M 375,0 375,1052.3622 M 390,0 390,1052.3622 M 405,0 405,1052.3622 M 420,0 420,1052.3622 M 435,0 435,1052.3622 M 450,0 450,1052.3622 M 465,0 465,1052.3622 M 480,0 480,1052.3622 M 495,0 495,1052.3622 M 510,0 510,1052.3622 M 525,0 525,1052.3622 M 540,0 540,1052.3622 M 555,0 555,1052.3622 M 570,0 570,1052.3622 M 585,0 585,1052.3622 M 600,0 600,1052.3622 M 615,0 615,1052.3622 M 630,0 630,1052.3622 M 645,0 645,1052.3622 M 660,0 660,1052.3622 M 675,0 675,1052.3622 M 690,0 690,1052.3622 M 705,0 705,1052.3622 M 720,0 720,1052.3622 M 735,0 735,1052.3622 M 0,0 744.09448,0 M 0,15 744.09448,15 M 0,30 744.09448,30 M 0,45 744.09448,45 M 0,60 744.09448,60 M 0,75 744.09448,75 M 0,90 744.09448,90 M 0,105 744.09448,105 M 0,120 744.09448,120 M 0,135 744.09448,135 M 0,150 744.09448,150 M 0,165 744.09448,165 M 0,180 744.09448,180 M 0,195 744.09448,195 M 0,210 744.09448,210 M 0,225 744.09448,225 M 0,240 744.09448,240 M 0,255 744.09448,255 M 0,270 744.09448,270 M 0,285 744.09448,285 M 0,300 744.09448,300 M 0,315 744.09448,315 M 0,330 744.09448,330 M 0,345 744.09448,345 M 0,360 744.09448,360 M 0,375 744.09448,375 M 0,390 744.09448,390 M 0,405 744.09448,405 M 0,420 744.09448,420 M 0,435 744.09448,435 M 0,450 744.09448,450 M 0,465 744.09448,465 M 0,480 744.09448,480 M 0,495 744.09448,495 M 0,510 744.09448,510 M 0,525 744.09448,525 M 0,540 744.09448,540 M 0,555 744.09448,555 M 0,570 744.09448,570 M 0,585 744.09448,585 M 0,600 744.09448,600 M 0,615 744.09448,615 M 0,630 744.09448,630 M 0,645 744.09448,645 M 0,660 744.09448,660 M 0,675 744.09448,675 M 0,690 744.09448,690 M 0,705 744.09448,705 M 0,720 744.09448,720 M 0,735 744.09448,735 M 0,750 744.09448,750 M 0,765 744.09448,765 M 0,780 744.09448,780 M 0,795 744.09448,795 M 0,810 744.09448,810 M 0,825 744.09448,825 M 0,840 744.09448,840 M 0,855 744.09448,855 M 0,870 744.09448,870 M 0,885 744.09448,885 M 0,900 744.09448,900 M 0,915 744.09448,915 M 0,930 744.09448,930 M 0,945 744.09448,945 M 0,960 744.09448,960 M 0,975 744.09448,975 M 0,990 744.09448,990 M 0,1005 l 744.09448,0 M 0,1020 l 744.09448,0 M 0,1035 l 744.09448,0 M 0,1050 l 744.09448,0"
       style="fill:none;fill-opacity:0.75000000;fill-rule:evenodd;stroke:#000000;stroke-linecap:butt;stroke-linejoin:miter;stroke-opacity:1.0000000;stroke-width:1pt"
       id="path3015" />
    <text
       xml:space="preserve"
       style="font-size:12px;font-style:normal;font-weight:normal;line-height:1.99999996%;letter-spacing:0px;word-spacing:0px;writing-mode:lr-tb;fill:#000000;fill-opacity:1;stroke:none;font-family:Sans"
       x="18.392857"
       y="25.933609"
       id="text3038"
       sodipodi:linespacing="2%"><tspan
         sodipodi:role="line"
         id="tspan3040"
         x="18.392857"
         y="25.933609"></tspan><tspan
         sodipodi:role="line"
         x="18.392857"
         y="26.173609"
         id="tspan3042">A</tspan></text>
    <text
       xml:space="preserve"
       style="font-size:12px;font-style:normal;font-weight:normal;line-height:1.99999996%;letter-spacing:0px;word-spacing:0px;writing-mode:lr-tb;fill:#000000;fill-opacity:1;stroke:none;font-family:Sans"
       x="18.398438"
       y="10.960489"
       id="text3038-2"
       sodipodi:linespacing="2%"><tspan
         sodipodi:role="line"
         id="tspan3040-8"
         x="18.398438"
         y="10.960489" /><tspan
         sodipodi:role="line"
         x="18.398438"
         y="11.200489"
         id="tspan3042-4">B</tspan></text>
    <text
       xml:space="preserve"
       style="font-size:12px;font-style:normal;font-weight:normal;line-height:1.99999996%;letter-spacing:0px;word-spacing:0px;writing-mode:lr-tb;fill:#000000;fill-opacity:1;stroke:none;font-family:Sans"
       x="33.577007"
       y="25.960489"
       id="text3038-6"
       sodipodi:linespacing="2%"><tspan
         sodipodi:role="line"
         id="tspan3040-5"
         x="33.577007"
         y="25.960489" /><tspan
         sodipodi:role="line"
         x="33.577007"
         y="26.200489"
         id="tspan3042-45">E</tspan></text>
    <text
       xml:space="preserve"
       style="font-size:12px;font-style:normal;font-weight:normal;line-height:1.99999996%;letter-spacing:0px;word-spacing:0px;writing-mode:lr-tb;fill:#000000;fill-opacity:1;stroke:none;font-family:Sans"
       x="17.862724"
       y="40.960491"
       id="text3038-6-6"
       sodipodi:linespacing="2%"><tspan
         sodipodi:role="line"
         id="tspan3040-5-3"
         x="17.862724"
         y="40.960491" /><tspan
         sodipodi:role="line"
         x="17.862724"
         y="41.200493"
         id="tspan3042-45-1">E</tspan></text>
    <text
       xml:space="preserve"
       style="font-size:12px;font-style:normal;font-weight:normal;line-height:1.99999996%;letter-spacing:0px;word-spacing:0px;writing-mode:lr-tb;fill:#000000;fill-opacity:1;stroke:none;font-family:Sans"
       x="2.8627243"
       y="26.139063"
       id="text3038-6-6-8"
       sodipodi:linespacing="2%"><tspan
         sodipodi:role="line"
         id="tspan3040-5-3-3"
         x="2.8627243"
         y="26.139063" /><tspan
         sodipodi:role="line"
         x="2.8627243"
         y="26.379063"
         id="tspan3042-45-1-6">O</tspan></text>
    <rect
       style="fill:#0000ff;fill-opacity:0.00808321;stroke:#0000ff"
       id="rect3186"
       width="45.357143"
       height="45"
       x="0"
       y="0.040751826" />
  </g>
</svg>
